<mxfile host="app.diagrams.net" agent="Mozilla/5.0 (Windows NT 10.0; Win64; x64) AppleWebKit/537.36 (KHTML, like Gecko) Chrome/128.0.0.0 Safari/537.36" version="24.7.8">
  <diagram name="Halaman-1" id="Q9aUd_FEa7P5aWUIN9Mb">
    <mxGraphModel dx="882" dy="496" grid="1" gridSize="10" guides="1" tooltips="1" connect="1" arrows="1" fold="1" page="1" pageScale="1" pageWidth="827" pageHeight="1169" math="0" shadow="0">
      <root>
        <mxCell id="0" />
        <mxCell id="1" parent="0" />
        <mxCell id="gBrqpDO6rjanSHMukueI-38" value="" style="rounded=0;orthogonalLoop=1;jettySize=auto;html=1;endArrow=halfCircle;endFill=0;endSize=6;strokeWidth=1;sketch=0;fontSize=12;curved=1;" edge="1" parent="1">
          <mxGeometry relative="1" as="geometry">
            <mxPoint x="424.44" y="980" as="sourcePoint" />
            <mxPoint x="424.44" y="1030" as="targetPoint" />
          </mxGeometry>
        </mxCell>
        <mxCell id="gBrqpDO6rjanSHMukueI-34" value="&lt;b&gt;To Vouchers&lt;/b&gt;&lt;div&gt;&lt;b&gt;Payable&lt;/b&gt;&lt;/div&gt;" style="ellipse;shape=cloud;whiteSpace=wrap;html=1;fillColor=#dae8fc;strokeColor=#6c8ebf;gradientColor=#FFFF99;" vertex="1" parent="1">
          <mxGeometry x="110" y="910" width="180" height="110" as="geometry" />
        </mxCell>
        <mxCell id="gBrqpDO6rjanSHMukueI-2" value="From&lt;div&gt;Purchasing&lt;/div&gt;" style="shape=offPageConnector;whiteSpace=wrap;html=1;fillColor=#dae8fc;strokeColor=#6c8ebf;gradientColor=#A1A7FF;size=0.7777777777777778;" vertex="1" parent="1">
          <mxGeometry x="350" y="100" width="140" height="90" as="geometry" />
        </mxCell>
        <mxCell id="gBrqpDO6rjanSHMukueI-4" value="" style="endArrow=block;dashed=1;endFill=0;endSize=12;html=1;rounded=0;strokeColor=#333333;" edge="1" parent="1">
          <mxGeometry width="160" relative="1" as="geometry">
            <mxPoint x="419.44" y="190" as="sourcePoint" />
            <mxPoint x="419.44" y="250" as="targetPoint" />
          </mxGeometry>
        </mxCell>
        <mxCell id="gBrqpDO6rjanSHMukueI-7" value="&lt;b&gt;Receive Goods&lt;/b&gt;&lt;div&gt;&lt;b&gt;Match with&lt;/b&gt;&lt;/div&gt;&lt;div&gt;&lt;b&gt;Purchase Order&lt;/b&gt;&lt;/div&gt;" style="shape=rhombus;perimeter=rhombusPerimeter;whiteSpace=wrap;html=1;align=center;fillColor=#dae8fc;strokeColor=#6c8ebf;gradientColor=#FFCE9F;" vertex="1" parent="1">
          <mxGeometry x="335" y="250" width="170" height="110" as="geometry" />
        </mxCell>
        <mxCell id="gBrqpDO6rjanSHMukueI-8" value="" style="endArrow=block;dashed=1;endFill=0;endSize=12;html=1;rounded=0;strokeColor=#333333;" edge="1" parent="1">
          <mxGeometry width="160" relative="1" as="geometry">
            <mxPoint x="419.44" y="360" as="sourcePoint" />
            <mxPoint x="419.44" y="420" as="targetPoint" />
          </mxGeometry>
        </mxCell>
        <mxCell id="gBrqpDO6rjanSHMukueI-9" value="&lt;b&gt;Preparation of&lt;/b&gt;&lt;div&gt;&lt;b&gt;Receiving&lt;/b&gt;&lt;/div&gt;&lt;div&gt;&lt;b&gt;Report&lt;/b&gt;&lt;/div&gt;" style="shape=rhombus;perimeter=rhombusPerimeter;whiteSpace=wrap;html=1;align=center;fillColor=#dae8fc;strokeColor=#6c8ebf;gradientColor=#FFCE9F;" vertex="1" parent="1">
          <mxGeometry x="330" y="420" width="180" height="100" as="geometry" />
        </mxCell>
        <mxCell id="gBrqpDO6rjanSHMukueI-10" value="" style="endArrow=block;dashed=1;endFill=0;endSize=12;html=1;rounded=0;" edge="1" parent="1">
          <mxGeometry width="160" relative="1" as="geometry">
            <mxPoint x="419.44" y="520" as="sourcePoint" />
            <mxPoint x="419.44" y="585" as="targetPoint" />
          </mxGeometry>
        </mxCell>
        <mxCell id="gBrqpDO6rjanSHMukueI-43" value="" style="edgeStyle=orthogonalEdgeStyle;rounded=0;orthogonalLoop=1;jettySize=auto;html=1;strokeColor=#333333;" edge="1" parent="1" source="gBrqpDO6rjanSHMukueI-11" target="gBrqpDO6rjanSHMukueI-9">
          <mxGeometry relative="1" as="geometry" />
        </mxCell>
        <mxCell id="gBrqpDO6rjanSHMukueI-11" value="&lt;b&gt;Purchase Order&lt;/b&gt;" style="shape=ext;double=1;rounded=1;whiteSpace=wrap;html=1;fillColor=#dae8fc;strokeColor=#6c8ebf;gradientColor=#9AC7BF;" vertex="1" parent="1">
          <mxGeometry x="340" y="585" width="160" height="65" as="geometry" />
        </mxCell>
        <mxCell id="gBrqpDO6rjanSHMukueI-13" value="" style="endArrow=none;html=1;rounded=0;" edge="1" parent="1">
          <mxGeometry width="50" height="50" relative="1" as="geometry">
            <mxPoint x="500" y="616.94" as="sourcePoint" />
            <mxPoint x="655" y="616.94" as="targetPoint" />
          </mxGeometry>
        </mxCell>
        <mxCell id="gBrqpDO6rjanSHMukueI-14" value="" style="endArrow=none;html=1;rounded=0;" edge="1" parent="1">
          <mxGeometry width="50" height="50" relative="1" as="geometry">
            <mxPoint x="185" y="616.94" as="sourcePoint" />
            <mxPoint x="340" y="616.94" as="targetPoint" />
          </mxGeometry>
        </mxCell>
        <mxCell id="gBrqpDO6rjanSHMukueI-18" value="" style="endArrow=classic;html=1;rounded=0;" edge="1" parent="1">
          <mxGeometry relative="1" as="geometry">
            <mxPoint x="190" y="610" as="sourcePoint" />
            <mxPoint x="190" y="730" as="targetPoint" />
          </mxGeometry>
        </mxCell>
        <mxCell id="gBrqpDO6rjanSHMukueI-19" value="" style="shape=message;html=1;outlineConnect=0;" vertex="1" parent="gBrqpDO6rjanSHMukueI-18">
          <mxGeometry width="20" height="14" relative="1" as="geometry">
            <mxPoint x="-10" y="-7" as="offset" />
          </mxGeometry>
        </mxCell>
        <mxCell id="gBrqpDO6rjanSHMukueI-22" value="&lt;b&gt;Receiving Report&lt;/b&gt;&lt;div&gt;&lt;b&gt;1&lt;/b&gt;&lt;/div&gt;" style="shape=callout;whiteSpace=wrap;html=1;perimeter=calloutPerimeter;fillColor=#dae8fc;strokeColor=#6c8ebf;gradientColor=#4D4D4D;" vertex="1" parent="1">
          <mxGeometry x="110" y="730" width="170" height="110" as="geometry" />
        </mxCell>
        <mxCell id="gBrqpDO6rjanSHMukueI-23" value="" style="endArrow=classic;html=1;rounded=0;" edge="1" parent="1">
          <mxGeometry relative="1" as="geometry">
            <mxPoint x="419.44" y="650" as="sourcePoint" />
            <mxPoint x="420" y="730" as="targetPoint" />
          </mxGeometry>
        </mxCell>
        <mxCell id="gBrqpDO6rjanSHMukueI-24" value="" style="shape=message;html=1;outlineConnect=0;" vertex="1" parent="gBrqpDO6rjanSHMukueI-23">
          <mxGeometry width="20" height="14" relative="1" as="geometry">
            <mxPoint x="-10" y="-7" as="offset" />
          </mxGeometry>
        </mxCell>
        <mxCell id="gBrqpDO6rjanSHMukueI-25" value="&lt;b&gt;Receiving Report&lt;/b&gt;&lt;div&gt;&lt;b&gt;2&lt;/b&gt;&lt;/div&gt;" style="shape=callout;whiteSpace=wrap;html=1;perimeter=calloutPerimeter;fillColor=#dae8fc;strokeColor=#6c8ebf;gradientColor=#4D4D4D;" vertex="1" parent="1">
          <mxGeometry x="340" y="730" width="170" height="110" as="geometry" />
        </mxCell>
        <mxCell id="gBrqpDO6rjanSHMukueI-28" value="&lt;b&gt;Receiving Report&lt;/b&gt;&lt;div&gt;&lt;b&gt;3&lt;/b&gt;&lt;/div&gt;" style="shape=callout;whiteSpace=wrap;html=1;perimeter=calloutPerimeter;fillColor=#dae8fc;strokeColor=#6c8ebf;gradientColor=#4D4D4D;" vertex="1" parent="1">
          <mxGeometry x="580" y="730" width="170" height="110" as="geometry" />
        </mxCell>
        <mxCell id="gBrqpDO6rjanSHMukueI-29" value="" style="endArrow=classic;html=1;rounded=0;" edge="1" parent="1">
          <mxGeometry relative="1" as="geometry">
            <mxPoint x="650" y="610" as="sourcePoint" />
            <mxPoint x="650" y="730" as="targetPoint" />
          </mxGeometry>
        </mxCell>
        <mxCell id="gBrqpDO6rjanSHMukueI-30" value="" style="shape=message;html=1;outlineConnect=0;" vertex="1" parent="gBrqpDO6rjanSHMukueI-29">
          <mxGeometry width="20" height="14" relative="1" as="geometry">
            <mxPoint x="-10" y="-7" as="offset" />
          </mxGeometry>
        </mxCell>
        <mxCell id="gBrqpDO6rjanSHMukueI-31" value="" style="endArrow=classic;html=1;rounded=0;" edge="1" parent="1">
          <mxGeometry width="50" height="50" relative="1" as="geometry">
            <mxPoint x="194.44" y="840" as="sourcePoint" />
            <mxPoint x="194.44" y="920" as="targetPoint" />
          </mxGeometry>
        </mxCell>
        <mxCell id="gBrqpDO6rjanSHMukueI-32" value="" style="endArrow=classic;html=1;rounded=0;" edge="1" parent="1">
          <mxGeometry width="50" height="50" relative="1" as="geometry">
            <mxPoint x="425.44" y="840" as="sourcePoint" />
            <mxPoint x="424" y="920" as="targetPoint" />
          </mxGeometry>
        </mxCell>
        <mxCell id="gBrqpDO6rjanSHMukueI-33" value="" style="endArrow=classic;html=1;rounded=0;" edge="1" parent="1">
          <mxGeometry width="50" height="50" relative="1" as="geometry">
            <mxPoint x="664.44" y="840" as="sourcePoint" />
            <mxPoint x="664" y="920" as="targetPoint" />
          </mxGeometry>
        </mxCell>
        <mxCell id="gBrqpDO6rjanSHMukueI-35" value="&lt;b&gt;To&lt;/b&gt;&lt;div&gt;&lt;b&gt;Stores&lt;/b&gt;&lt;/div&gt;&lt;div&gt;&lt;br&gt;&lt;/div&gt;" style="shape=switch;whiteSpace=wrap;html=1;fillColor=#dae8fc;strokeColor=#6c8ebf;gradientColor=#66FF66;" vertex="1" parent="1">
          <mxGeometry x="340" y="900" width="170" height="110" as="geometry" />
        </mxCell>
        <mxCell id="gBrqpDO6rjanSHMukueI-37" value="&lt;b&gt;By Number&amp;nbsp;&lt;/b&gt;" style="strokeWidth=2;html=1;shape=mxgraph.flowchart.display;whiteSpace=wrap;fillColor=#dae8fc;strokeColor=#6c8ebf;gradientColor=#FFFF33;" vertex="1" parent="1">
          <mxGeometry x="580" y="922.5" width="170" height="85" as="geometry" />
        </mxCell>
        <mxCell id="gBrqpDO6rjanSHMukueI-39" value="" style="ellipse;whiteSpace=wrap;html=1;align=center;aspect=fixed;fillColor=none;strokeColor=none;resizable=0;perimeter=centerPerimeter;rotatable=0;allowArrows=0;points=[];outlineConnect=1;" vertex="1" parent="1">
          <mxGeometry x="409" y="1030" width="10" height="10" as="geometry" />
        </mxCell>
        <mxCell id="gBrqpDO6rjanSHMukueI-40" value="For Receipts and&lt;div&gt;Returns&lt;/div&gt;" style="text;html=1;align=center;verticalAlign=middle;resizable=0;points=[];autosize=1;strokeColor=none;fillColor=none;" vertex="1" parent="1">
          <mxGeometry x="370" y="1030" width="110" height="40" as="geometry" />
        </mxCell>
        <mxCell id="gBrqpDO6rjanSHMukueI-41" value="&lt;b&gt;Flowchart&lt;/b&gt;&lt;div&gt;&lt;b&gt;Accounting&lt;/b&gt;&lt;/div&gt;" style="shape=module;align=left;spacingLeft=20;align=center;verticalAlign=top;whiteSpace=wrap;html=1;fillColor=#dae8fc;strokeColor=#6c8ebf;gradientColor=#A2FF8F;" vertex="1" parent="1">
          <mxGeometry x="320" y="20" width="190" height="50" as="geometry" />
        </mxCell>
      </root>
    </mxGraphModel>
  </diagram>
</mxfile>
